<svg width="135" height="124" viewBox="0 0 135 124" fill="none" xmlns="http://www.w3.org/2000/svg">
<circle cx="70.7325" cy="64.2245" r="59.4385" fill="#EEF4FF"/>
<path d="M86.4405 70.8929C86.4405 71.0107 82.9053 71.105 78.5865 71.105C74.2676 71.105 70.7324 71.0107 70.7324 70.8929C70.7324 70.7751 74.2676 70.6808 78.5865 70.6808C82.9053 70.6808 86.4405 70.7751 86.4405 70.8929Z" fill="#E0E0E0"/>
<path d="M86.247 70.8929C86.247 71.0107 82.8237 71.105 78.5874 71.105C74.351 71.105 70.9277 71.0107 70.9277 70.8929C70.9277 70.7751 74.351 70.6808 78.5874 70.6808C82.8237 70.6808 86.247 70.7751 86.247 70.8929Z" fill="#E0E0E0"/>
<rect x="33.4746" y="16.2037" width="74.9051" height="96.0416" rx="1" fill="url(#paint0_linear_3538_46930)"/>
<path d="M41.2812 25.0658C41.2812 24.8449 41.4603 24.6658 41.6812 24.6658H102.573C102.793 24.6658 102.973 24.8449 102.973 25.0658V63.7136V102.362C102.973 102.582 102.793 102.762 102.573 102.762H41.6813C41.4603 102.762 41.2812 102.582 41.2812 102.362V63.7136V25.0658Z" fill="url(#paint1_linear_3538_46930)"/>
<path d="M41.2401 23.6475C41.2155 23.4097 41.4025 23.2063 41.6415 23.2063H100.555C100.772 23.2063 100.949 23.3775 100.955 23.5941C101.052 27.4369 101.802 58.8108 100.594 71.5017C99.4176 83.8547 95.9119 94.809 95.3109 96.6213C95.2576 96.782 95.1096 96.8847 94.9403 96.8862L33.4546 97.4527C33.1337 97.4556 32.926 97.097 33.084 96.8176C34.4904 94.3299 39.3752 84.4708 41.1927 64.7901C43.1336 43.7737 41.5429 26.5791 41.2401 23.6475Z" fill="white"/>
<g filter="url(#filter0_d_3538_46930)">
<path d="M39.6719 23.2133C39.6667 22.9881 39.8481 22.8173 40.0733 22.8173H98.9911C99.2208 22.8173 99.4033 23.0102 99.3905 23.2395L97.2666 61.4665C96.4056 76.9643 83.4945 89.0364 67.9739 88.8558L28.1854 88.3928C27.8439 88.3888 27.6529 87.9793 27.8623 87.7095C29.6982 85.3434 35.6632 76.8355 37.8115 63.7073C40.1765 49.2546 39.7477 26.4828 39.6719 23.2133Z" fill="url(#paint2_linear_3538_46930)"/>
</g>
<path d="M76.5637 70.0439C74.4727 78.6272 62.2459 86.5572 58.0781 88.7471C85.53 91.998 94.6505 76.1951 97.2952 64.4799C91.3548 69.6672 82.6627 71.9424 77.3168 69.67C77.007 69.5383 76.6433 69.7169 76.5637 70.0439Z" fill="url(#paint3_linear_3538_46930)"/>
<path d="M27.3253 76.7104C17.3533 70.8342 18.6712 53.4515 33.4691 52.0202C47.5333 50.6598 71.8281 63.2772 82.7931 55.9803C88.9441 51.8869 82.2542 42.048 86.1358 35.7612C87.1662 34.0923 89.2759 32.2833 92.9405 29.7611C101.029 24.1942 98.2235 18.9775 95.8098 17.0651" stroke="#D9CDFF" stroke-linecap="round" stroke-dasharray="1 4"/>
<path fill-rule="evenodd" clip-rule="evenodd" d="M72.3684 11.5682C72.3684 12.4715 71.6361 13.2037 70.7329 13.2037C69.8296 13.2037 69.0974 12.4715 69.0974 11.5682C69.0974 10.665 69.8296 9.93274 70.7329 9.93274C71.6361 9.93274 72.3684 10.665 72.3684 11.5682ZM74.9643 13.4638C75.224 12.8852 75.3684 12.2436 75.3684 11.5682C75.3684 9.00812 73.293 6.93274 70.7329 6.93274C68.1728 6.93274 66.0974 9.00812 66.0974 11.5682C66.0974 12.2559 66.2471 12.9086 66.5157 13.4955C63.8874 13.5052 61.4264 13.5142 59.4594 13.521C56.7868 13.5313 54.4058 15.0597 53.5068 17.3522C52.8226 19.1075 52.0247 21.1527 51.4005 22.7523C50.8887 24.0638 51.8561 25.4792 53.2639 25.4792H88.4631C89.9047 25.4792 90.8735 24.0011 90.2985 22.6792C89.5744 21.0145 88.6493 18.8834 87.8738 17.0837C86.9141 14.8738 84.5574 13.4281 81.9455 13.4384C80.0071 13.4452 77.5726 13.4541 74.9643 13.4638Z" fill="url(#paint4_linear_3538_46930)"/>
<circle cx="7.54945" cy="112.319" r="6.54945" stroke="url(#paint5_linear_3538_46930)" stroke-width="2"/>
<circle cx="121.784" cy="3.9195" r="3.9195" fill="url(#paint6_linear_3538_46930)"/>
<circle cx="130.484" cy="74.7263" r="2.71974" transform="rotate(40.3301 130.484 74.7263)" fill="url(#paint7_linear_3538_46930)"/>
<circle cx="15.0987" cy="25.263" r="2.05674" fill="#E9E7FC"/>
<defs>
<filter id="filter0_d_3538_46930" x="25.7754" y="22.8173" width="75.6162" height="70.0405" filterUnits="userSpaceOnUse" color-interpolation-filters="sRGB">
<feFlood flood-opacity="0" result="BackgroundImageFix"/>
<feColorMatrix in="SourceAlpha" type="matrix" values="0 0 0 0 0 0 0 0 0 0 0 0 0 0 0 0 0 0 127 0" result="hardAlpha"/>
<feOffset dy="2"/>
<feGaussianBlur stdDeviation="1"/>
<feComposite in2="hardAlpha" operator="out"/>
<feColorMatrix type="matrix" values="0 0 0 0 0.777925 0 0 0 0 0.759722 0 0 0 0 1 0 0 0 0.2 0"/>
<feBlend mode="normal" in2="BackgroundImageFix" result="effect1_dropShadow_3538_46930"/>
<feBlend mode="normal" in="SourceGraphic" in2="effect1_dropShadow_3538_46930" result="shape"/>
</filter>
<linearGradient id="paint0_linear_3538_46930" x1="70.9272" y1="16.2037" x2="70.9272" y2="112.245" gradientUnits="userSpaceOnUse">
<stop stop-color="#B6AFFD"/>
<stop offset="1" stop-color="#896EE7"/>
</linearGradient>
<linearGradient id="paint1_linear_3538_46930" x1="82.0614" y1="32.1967" x2="104.193" y2="106.564" gradientUnits="userSpaceOnUse">
<stop stop-color="#886DE7"/>
<stop offset="1" stop-color="white"/>
</linearGradient>
<linearGradient id="paint2_linear_3538_46930" x1="69.538" y1="22.8173" x2="65.5311" y2="75.343" gradientUnits="userSpaceOnUse">
<stop stop-color="#F3F2FF"/>
<stop offset="1" stop-color="white"/>
</linearGradient>
<linearGradient id="paint3_linear_3538_46930" x1="87.2427" y1="87.8315" x2="75.4732" y2="65.4058" gradientUnits="userSpaceOnUse">
<stop stop-color="#E2DFFA"/>
<stop offset="1" stop-color="white"/>
</linearGradient>
<linearGradient id="paint4_linear_3538_46930" x1="74.414" y1="25.4793" x2="70.5853" y2="-3.81154" gradientUnits="userSpaceOnUse">
<stop stop-color="#8A6FE8"/>
<stop offset="1" stop-color="#F6F6FF"/>
</linearGradient>
<linearGradient id="paint5_linear_3538_46930" x1="-9.56904" y1="112.319" x2="20.9718" y2="117.009" gradientUnits="userSpaceOnUse">
<stop stop-color="#ADA4ED"/>
<stop offset="1" stop-color="#F8F7FE"/>
</linearGradient>
<linearGradient id="paint6_linear_3538_46930" x1="131.055" y1="-2.96039" x2="121.784" y2="12.4897" gradientUnits="userSpaceOnUse">
<stop stop-color="#E0DDFA"/>
<stop offset="1" stop-color="#F3F2FD"/>
</linearGradient>
<linearGradient id="paint7_linear_3538_46930" x1="133.204" y1="67.4101" x2="127.764" y2="82.5009" gradientUnits="userSpaceOnUse">
<stop stop-color="#9784EA"/>
<stop offset="1" stop-color="#E0DDFA"/>
</linearGradient>
</defs>
</svg>
