<?xml version="1.0" standalone="no"?>
<!DOCTYPE svg PUBLIC "-//W3C//DTD SVG 20010904//EN"
 "http://www.w3.org/TR/2001/REC-SVG-20010904/DTD/svg10.dtd">
<svg version="1.0" xmlns="http://www.w3.org/2000/svg"
 width="225.000000pt" height="225.000000pt" viewBox="0 0 225.000000 225.000000"
 preserveAspectRatio="xMidYMid meet">
<metadata>
Created by potrace 1.14, written by Peter Selinger 2001-2017
</metadata>
<g transform="translate(0.000000,225.000000) scale(0.100000,-0.100000)"
fill="#000000" stroke="none">
<path d="M413 1960 c-87 -18 -152 -68 -191 -149 l-27 -56 0 -490 c0 -478 1
-491 21 -536 23 -49 82 -112 129 -137 20 -11 65 -17 133 -20 97 -4 105 -3 128
19 26 24 33 83 14 119 -13 24 -62 40 -126 40 -64 0 -98 14 -113 47 -15 33 -15
888 0 932 6 17 19 36 29 41 12 6 280 10 714 10 l695 0 28 -24 28 -24 3 -434
c2 -238 0 -448 -3 -467 -4 -18 -17 -44 -30 -57 -21 -21 -34 -24 -95 -24 -84 0
-127 -18 -137 -58 -24 -97 29 -139 162 -129 95 7 165 38 215 94 71 81 71 80
68 629 -3 480 -3 490 -25 530 -26 48 -88 107 -140 131 -35 17 -91 18 -738 20
-385 0 -719 -3 -742 -7z"/>
<path d="M1105 1031 c-11 -3 -30 -13 -41 -21 -24 -17 -380 -548 -401 -598 -13
-30 -12 -36 9 -73 16 -28 32 -42 57 -50 23 -6 175 -9 423 -7 l386 3 26 24 c20
19 26 34 26 65 -1 37 -24 75 -208 346 -213 313 -224 326 -277 311z m121 -413
l94 -143 -95 -3 c-52 -1 -139 -1 -195 0 l-101 3 45 68 c25 38 68 104 96 149
29 44 54 77 57 74 3 -3 48 -70 99 -148z"/>
</g>
</svg>
